<svg width="42" height="39" viewBox="0 0 42 39" fill="none" xmlns="http://www.w3.org/2000/svg">
<path d="M9.88889 15.3889H32.1111M9.88889 23.6111H21M9.88889 1V5.11111M32.1111 1V5.11111M8.11111 38H33.8889C36.378 38 37.6227 38 38.5733 37.5519C39.4096 37.1578 40.0896 36.5288 40.5156 35.7553C41 34.876 41 33.7246 41 31.4222V11.6889C41 9.38644 41 8.23523 40.5156 7.35582C40.0896 6.58225 39.4096 5.95333 38.5733 5.5592C37.6227 5.11111 36.378 5.11111 33.8889 5.11111H8.11111C5.622 5.11111 4.37742 5.11111 3.42671 5.5592C2.59042 5.95333 1.91051 6.58225 1.48442 7.35582C1 8.23523 1 9.38644 1 11.6889V31.4222C1 33.7246 1 34.876 1.48442 35.7553C1.91051 36.5288 2.59042 37.1578 3.42671 37.5519C4.37742 38 5.62198 38 8.11111 38Z" stroke="black" stroke-width="2" stroke-linecap="round" stroke-linejoin="round"/>
</svg>
