<svg width="58" height="59" viewBox="0 0 58 59" fill="none" xmlns="http://www.w3.org/2000/svg">
<path fill-rule="evenodd" clip-rule="evenodd" d="M52.5697 2.82731C49.4666 -0.275766 44.4354 -0.275777 41.3323 2.82731L3.83377 40.3259C2.72451 41.4351 1.9684 42.8479 1.66076 44.386L0.105815 52.1609C-0.635512 55.8674 2.6325 59.1355 6.33914 58.3942L14.1138 56.8392C15.6521 56.5317 17.0649 55.7755 18.1742 54.6662L55.6726 17.1677C58.7758 14.0646 58.7758 9.0335 55.6726 5.93039L52.5697 2.82731ZM45.078 6.57306C46.1126 5.53871 47.7894 5.53871 48.824 6.57306L51.9269 9.67617C52.9615 10.7105 52.9615 12.3875 51.9269 13.4219L44.8507 20.498L38.0021 13.6492L45.078 6.57306ZM34.2561 17.3949L7.57953 44.0716C7.20977 44.4414 6.95776 44.9123 6.8552 45.4251L5.30025 53.1996L13.075 51.6446C13.5877 51.5421 14.0586 51.2902 14.4284 50.9205L41.105 24.2438L34.2561 17.3949Z" fill="#0F0F0F"/>
</svg>
