<svg width="76" height="41" viewBox="0 0 76 41" fill="none" xmlns="http://www.w3.org/2000/svg">
<path d="M38 41C29.4537 41 20.2558 37.6868 11.4007 31.4184C4.78103 26.7326 0.695285 22.0903 0.524559 21.8946C-0.174853 21.0941 -0.174853 19.9059 0.524559 19.1052C0.695285 18.9099 4.78086 14.2672 11.4007 9.5814C20.2559 3.3135 29.4539 0 38 0C46.5463 0 55.7444 3.31333 64.5993 9.5814C71.219 14.2672 75.3047 18.9097 75.4754 19.1052C76.1749 19.9057 76.1749 21.094 75.4754 21.8946C75.3047 22.0899 71.2191 26.7326 64.5993 31.4184C55.7444 37.6867 46.5465 41 38 41ZM5.09567 20.5002C6.74791 22.1702 9.86621 25.1069 13.9834 28.0112C19.6279 31.9926 28.3764 36.7393 38 36.7393C47.6236 36.7393 56.3723 31.9926 62.0166 28.0112C66.1333 25.1074 69.2517 22.1704 70.9043 20.5002C69.2523 18.8301 66.1338 15.8934 62.0166 12.9892C56.3723 9.00756 47.6236 4.26109 38 4.26109C28.3764 4.26109 19.6279 9.00756 13.9834 12.9892C9.86673 15.8929 6.74826 18.8296 5.09567 20.5002Z" fill="black"/>
<path d="M38 33.7085C30.6527 33.7085 24.6754 27.7832 24.6754 20.5002C24.6754 13.2172 30.6527 7.29185 38 7.29185C41.2313 7.29185 44.3483 8.45316 46.7767 10.5621C47.6695 11.3373 47.7593 12.6832 46.9772 13.5683C46.1951 14.4533 44.8371 14.5421 43.9445 13.767C42.3001 12.339 40.1888 11.5526 37.9998 11.5526C33.0226 11.5526 28.9735 15.5666 28.9735 20.5002C28.9735 25.4338 33.0226 29.4477 37.9998 29.4477C42.9772 29.4477 47.0262 25.4338 47.0262 20.5002C47.0262 19.3237 47.9885 18.3698 49.1753 18.3698C50.3621 18.3698 51.3244 19.3237 51.3244 20.5002C51.3248 27.7832 45.3473 33.7085 38 33.7085Z" fill="black"/>
<path d="M38 24.7609C35.6299 24.7609 33.7017 22.8495 33.7017 20.5002C33.7017 18.1508 35.6299 16.2394 38 16.2394C40.3702 16.2394 42.2983 18.1508 42.2983 20.5002C42.2983 22.8495 40.3702 24.7609 38 24.7609Z" fill="black"/>
</svg>
